<svg preserveAspectRatio="none" width="2117" height="1440" viewBox="0 0 2117 1440" fill="none" xmlns="http://www.w3.org/2000/svg">
<rect width="2117" height="1440" fill="#640032"/>
<path opacity="0.2" d="M340.147 1060.25L0 1128.78V1440H2117V814.697L1971.9 789L1673.38 893.217H1314.21L993.087 961.743L623.207 1075.95L340.147 1060.25Z" fill="#640032"/>
<path opacity="0.2" d="M340.147 1060.25L0 1128.78V1440H2117V814.697L1971.9 789L1673.38 893.217H1314.21L993.087 961.743L623.207 1075.95L340.147 1060.25Z" fill="#870A3C"/>
<path opacity="0.2" d="M240.514 1107.58L0 1149.13V1440H2117V868.29L2012.22 851.095L1714.56 977.187L1401.41 1149.13L952.531 1070.32L642.958 1232.24L240.514 1107.58Z" fill="#AF144B"/>
<path opacity="0.2" d="M142.96 1176.53L0 1382.72V1440H2117V1083.45L1816.78 1219.48L1435.56 1246.69L1080.54 1176.53L683.826 1295.38L356.209 1246.69L142.96 1176.53Z" fill="#D6244F"/>
</svg>
